<mxfile host="app.diagrams.net" modified="2024-02-15T14:44:31.610Z" agent="Mozilla/5.0 (Windows NT 10.0; Win64; x64) AppleWebKit/537.36 (KHTML, like Gecko) Chrome/120.0.0.0 YaBrowser/24.1.0.0 Safari/537.36" etag="DAgbIq9LH80whRAlg5H4" version="21.8.0" type="device">
  <diagram name="Страница — 1" id="0pMHOFnpfEggwfG1GchS">
    <mxGraphModel dx="1066" dy="611" grid="1" gridSize="10" guides="1" tooltips="1" connect="1" arrows="1" fold="1" page="1" pageScale="1" pageWidth="827" pageHeight="1169" math="0" shadow="0">
      <root>
        <mxCell id="0" />
        <mxCell id="1" parent="0" />
        <mxCell id="ksmCcuZ5momVZjLcUPnp-4" style="edgeStyle=orthogonalEdgeStyle;rounded=0;orthogonalLoop=1;jettySize=auto;html=1;exitX=0;exitY=1;exitDx=0;exitDy=0;entryX=0.5;entryY=0;entryDx=0;entryDy=0;" edge="1" parent="1" source="ksmCcuZ5momVZjLcUPnp-1" target="ksmCcuZ5momVZjLcUPnp-3">
          <mxGeometry relative="1" as="geometry" />
        </mxCell>
        <mxCell id="ksmCcuZ5momVZjLcUPnp-9" style="edgeStyle=orthogonalEdgeStyle;rounded=0;orthogonalLoop=1;jettySize=auto;html=1;exitX=0.25;exitY=1;exitDx=0;exitDy=0;entryX=0.5;entryY=0;entryDx=0;entryDy=0;" edge="1" parent="1" source="ksmCcuZ5momVZjLcUPnp-1" target="ksmCcuZ5momVZjLcUPnp-5">
          <mxGeometry relative="1" as="geometry" />
        </mxCell>
        <mxCell id="ksmCcuZ5momVZjLcUPnp-10" style="edgeStyle=orthogonalEdgeStyle;rounded=0;orthogonalLoop=1;jettySize=auto;html=1;exitX=0.5;exitY=1;exitDx=0;exitDy=0;entryX=0.5;entryY=0;entryDx=0;entryDy=0;" edge="1" parent="1" source="ksmCcuZ5momVZjLcUPnp-1" target="ksmCcuZ5momVZjLcUPnp-6">
          <mxGeometry relative="1" as="geometry" />
        </mxCell>
        <mxCell id="ksmCcuZ5momVZjLcUPnp-11" style="edgeStyle=orthogonalEdgeStyle;rounded=0;orthogonalLoop=1;jettySize=auto;html=1;exitX=0.75;exitY=1;exitDx=0;exitDy=0;entryX=0.5;entryY=0;entryDx=0;entryDy=0;" edge="1" parent="1" source="ksmCcuZ5momVZjLcUPnp-1" target="ksmCcuZ5momVZjLcUPnp-7">
          <mxGeometry relative="1" as="geometry" />
        </mxCell>
        <mxCell id="ksmCcuZ5momVZjLcUPnp-12" style="edgeStyle=orthogonalEdgeStyle;rounded=0;orthogonalLoop=1;jettySize=auto;html=1;exitX=1;exitY=1;exitDx=0;exitDy=0;entryX=0.5;entryY=0;entryDx=0;entryDy=0;" edge="1" parent="1" source="ksmCcuZ5momVZjLcUPnp-1" target="ksmCcuZ5momVZjLcUPnp-8">
          <mxGeometry relative="1" as="geometry" />
        </mxCell>
        <mxCell id="ksmCcuZ5momVZjLcUPnp-1" value="Директор" style="rounded=0;whiteSpace=wrap;html=1;" vertex="1" parent="1">
          <mxGeometry x="350" y="140" width="120" height="60" as="geometry" />
        </mxCell>
        <mxCell id="ksmCcuZ5momVZjLcUPnp-35" style="edgeStyle=orthogonalEdgeStyle;rounded=0;orthogonalLoop=1;jettySize=auto;html=1;exitX=0.5;exitY=1;exitDx=0;exitDy=0;entryX=0.5;entryY=0;entryDx=0;entryDy=0;" edge="1" parent="1" source="ksmCcuZ5momVZjLcUPnp-3" target="ksmCcuZ5momVZjLcUPnp-25">
          <mxGeometry relative="1" as="geometry" />
        </mxCell>
        <mxCell id="ksmCcuZ5momVZjLcUPnp-3" value="Производственный&lt;br&gt;отдел" style="rounded=0;whiteSpace=wrap;html=1;" vertex="1" parent="1">
          <mxGeometry x="110" y="240" width="120" height="60" as="geometry" />
        </mxCell>
        <mxCell id="ksmCcuZ5momVZjLcUPnp-40" style="edgeStyle=orthogonalEdgeStyle;rounded=0;orthogonalLoop=1;jettySize=auto;html=1;exitX=0.5;exitY=1;exitDx=0;exitDy=0;entryX=0.5;entryY=0;entryDx=0;entryDy=0;" edge="1" parent="1" source="ksmCcuZ5momVZjLcUPnp-5" target="ksmCcuZ5momVZjLcUPnp-30">
          <mxGeometry relative="1" as="geometry" />
        </mxCell>
        <mxCell id="ksmCcuZ5momVZjLcUPnp-5" value="Коммерческий отдел" style="rounded=0;whiteSpace=wrap;html=1;" vertex="1" parent="1">
          <mxGeometry x="270" y="240" width="120" height="60" as="geometry" />
        </mxCell>
        <mxCell id="ksmCcuZ5momVZjLcUPnp-6" value="Отдел кадров" style="rounded=0;whiteSpace=wrap;html=1;" vertex="1" parent="1">
          <mxGeometry x="430" y="240" width="120" height="60" as="geometry" />
        </mxCell>
        <mxCell id="ksmCcuZ5momVZjLcUPnp-13" style="edgeStyle=orthogonalEdgeStyle;rounded=0;orthogonalLoop=1;jettySize=auto;html=1;" edge="1" parent="1" source="ksmCcuZ5momVZjLcUPnp-7">
          <mxGeometry relative="1" as="geometry">
            <mxPoint x="640" y="330" as="targetPoint" />
          </mxGeometry>
        </mxCell>
        <mxCell id="ksmCcuZ5momVZjLcUPnp-7" value="Бухгалтер" style="rounded=0;whiteSpace=wrap;html=1;" vertex="1" parent="1">
          <mxGeometry x="580" y="240" width="120" height="60" as="geometry" />
        </mxCell>
        <mxCell id="ksmCcuZ5momVZjLcUPnp-15" style="edgeStyle=orthogonalEdgeStyle;rounded=0;orthogonalLoop=1;jettySize=auto;html=1;" edge="1" parent="1" source="ksmCcuZ5momVZjLcUPnp-8">
          <mxGeometry relative="1" as="geometry">
            <mxPoint x="790" y="330" as="targetPoint" />
          </mxGeometry>
        </mxCell>
        <mxCell id="ksmCcuZ5momVZjLcUPnp-8" value="Отдел закупок" style="rounded=0;whiteSpace=wrap;html=1;" vertex="1" parent="1">
          <mxGeometry x="730" y="240" width="120" height="60" as="geometry" />
        </mxCell>
        <mxCell id="ksmCcuZ5momVZjLcUPnp-14" value="Кассир" style="rounded=0;whiteSpace=wrap;html=1;" vertex="1" parent="1">
          <mxGeometry x="580" y="330" width="120" height="60" as="geometry" />
        </mxCell>
        <mxCell id="ksmCcuZ5momVZjLcUPnp-18" style="edgeStyle=orthogonalEdgeStyle;rounded=0;orthogonalLoop=1;jettySize=auto;html=1;exitX=0.5;exitY=1;exitDx=0;exitDy=0;entryX=0.5;entryY=0;entryDx=0;entryDy=0;" edge="1" parent="1" source="ksmCcuZ5momVZjLcUPnp-16" target="ksmCcuZ5momVZjLcUPnp-17">
          <mxGeometry relative="1" as="geometry" />
        </mxCell>
        <mxCell id="ksmCcuZ5momVZjLcUPnp-16" value="Начальник&amp;nbsp;&lt;br&gt;отдела" style="rounded=0;whiteSpace=wrap;html=1;" vertex="1" parent="1">
          <mxGeometry x="730" y="330" width="120" height="60" as="geometry" />
        </mxCell>
        <mxCell id="ksmCcuZ5momVZjLcUPnp-20" style="edgeStyle=orthogonalEdgeStyle;rounded=0;orthogonalLoop=1;jettySize=auto;html=1;exitX=0.5;exitY=1;exitDx=0;exitDy=0;entryX=0.5;entryY=0;entryDx=0;entryDy=0;" edge="1" parent="1" source="ksmCcuZ5momVZjLcUPnp-17" target="ksmCcuZ5momVZjLcUPnp-19">
          <mxGeometry relative="1" as="geometry" />
        </mxCell>
        <mxCell id="ksmCcuZ5momVZjLcUPnp-17" value="Оператор по работе&amp;nbsp;&lt;br&gt;с прорабами" style="rounded=0;whiteSpace=wrap;html=1;" vertex="1" parent="1">
          <mxGeometry x="730" y="420" width="120" height="60" as="geometry" />
        </mxCell>
        <mxCell id="ksmCcuZ5momVZjLcUPnp-22" style="edgeStyle=orthogonalEdgeStyle;rounded=0;orthogonalLoop=1;jettySize=auto;html=1;exitX=0.5;exitY=1;exitDx=0;exitDy=0;entryX=0.5;entryY=0;entryDx=0;entryDy=0;" edge="1" parent="1" source="ksmCcuZ5momVZjLcUPnp-19" target="ksmCcuZ5momVZjLcUPnp-21">
          <mxGeometry relative="1" as="geometry" />
        </mxCell>
        <mxCell id="ksmCcuZ5momVZjLcUPnp-19" value="Менеджер по работе с поставщиками" style="rounded=0;whiteSpace=wrap;html=1;" vertex="1" parent="1">
          <mxGeometry x="730" y="510" width="120" height="60" as="geometry" />
        </mxCell>
        <mxCell id="ksmCcuZ5momVZjLcUPnp-23" style="edgeStyle=orthogonalEdgeStyle;rounded=0;orthogonalLoop=1;jettySize=auto;html=1;" edge="1" parent="1" source="ksmCcuZ5momVZjLcUPnp-21">
          <mxGeometry relative="1" as="geometry">
            <mxPoint x="790" y="690" as="targetPoint" />
          </mxGeometry>
        </mxCell>
        <mxCell id="ksmCcuZ5momVZjLcUPnp-21" value="Операционисты" style="rounded=0;whiteSpace=wrap;html=1;" vertex="1" parent="1">
          <mxGeometry x="730" y="600" width="120" height="60" as="geometry" />
        </mxCell>
        <mxCell id="ksmCcuZ5momVZjLcUPnp-24" value="Начальник отдела" style="rounded=0;whiteSpace=wrap;html=1;" vertex="1" parent="1">
          <mxGeometry x="730" y="690" width="120" height="60" as="geometry" />
        </mxCell>
        <mxCell id="ksmCcuZ5momVZjLcUPnp-36" style="edgeStyle=orthogonalEdgeStyle;rounded=0;orthogonalLoop=1;jettySize=auto;html=1;exitX=0.5;exitY=1;exitDx=0;exitDy=0;entryX=0.5;entryY=0;entryDx=0;entryDy=0;" edge="1" parent="1" source="ksmCcuZ5momVZjLcUPnp-25" target="ksmCcuZ5momVZjLcUPnp-26">
          <mxGeometry relative="1" as="geometry" />
        </mxCell>
        <mxCell id="ksmCcuZ5momVZjLcUPnp-25" value="Главный инженер-архитектор" style="rounded=0;whiteSpace=wrap;html=1;" vertex="1" parent="1">
          <mxGeometry x="110" y="330" width="120" height="60" as="geometry" />
        </mxCell>
        <mxCell id="ksmCcuZ5momVZjLcUPnp-37" style="edgeStyle=orthogonalEdgeStyle;rounded=0;orthogonalLoop=1;jettySize=auto;html=1;exitX=0.5;exitY=1;exitDx=0;exitDy=0;entryX=0.5;entryY=0;entryDx=0;entryDy=0;" edge="1" parent="1" source="ksmCcuZ5momVZjLcUPnp-26" target="ksmCcuZ5momVZjLcUPnp-27">
          <mxGeometry relative="1" as="geometry" />
        </mxCell>
        <mxCell id="ksmCcuZ5momVZjLcUPnp-26" value="Менеджер по пожарной безопасности" style="rounded=0;whiteSpace=wrap;html=1;" vertex="1" parent="1">
          <mxGeometry x="110" y="420" width="120" height="60" as="geometry" />
        </mxCell>
        <mxCell id="ksmCcuZ5momVZjLcUPnp-38" style="edgeStyle=orthogonalEdgeStyle;rounded=0;orthogonalLoop=1;jettySize=auto;html=1;exitX=0.5;exitY=1;exitDx=0;exitDy=0;entryX=0.5;entryY=0;entryDx=0;entryDy=0;" edge="1" parent="1" source="ksmCcuZ5momVZjLcUPnp-27" target="ksmCcuZ5momVZjLcUPnp-28">
          <mxGeometry relative="1" as="geometry" />
        </mxCell>
        <mxCell id="ksmCcuZ5momVZjLcUPnp-27" value="Прораб 1" style="rounded=0;whiteSpace=wrap;html=1;" vertex="1" parent="1">
          <mxGeometry x="110" y="510" width="120" height="60" as="geometry" />
        </mxCell>
        <mxCell id="ksmCcuZ5momVZjLcUPnp-39" style="edgeStyle=orthogonalEdgeStyle;rounded=0;orthogonalLoop=1;jettySize=auto;html=1;exitX=0.5;exitY=1;exitDx=0;exitDy=0;entryX=0.5;entryY=0;entryDx=0;entryDy=0;" edge="1" parent="1" source="ksmCcuZ5momVZjLcUPnp-28" target="ksmCcuZ5momVZjLcUPnp-29">
          <mxGeometry relative="1" as="geometry" />
        </mxCell>
        <mxCell id="ksmCcuZ5momVZjLcUPnp-28" value="Прораб 2" style="rounded=0;whiteSpace=wrap;html=1;" vertex="1" parent="1">
          <mxGeometry x="110" y="600" width="120" height="60" as="geometry" />
        </mxCell>
        <mxCell id="ksmCcuZ5momVZjLcUPnp-29" value="Прораб 3&amp;nbsp;" style="rounded=0;whiteSpace=wrap;html=1;" vertex="1" parent="1">
          <mxGeometry x="110" y="690" width="120" height="60" as="geometry" />
        </mxCell>
        <mxCell id="ksmCcuZ5momVZjLcUPnp-41" style="edgeStyle=orthogonalEdgeStyle;rounded=0;orthogonalLoop=1;jettySize=auto;html=1;exitX=0.5;exitY=1;exitDx=0;exitDy=0;" edge="1" parent="1" source="ksmCcuZ5momVZjLcUPnp-30" target="ksmCcuZ5momVZjLcUPnp-31">
          <mxGeometry relative="1" as="geometry" />
        </mxCell>
        <mxCell id="ksmCcuZ5momVZjLcUPnp-30" value="Начальник&amp;nbsp;&lt;br&gt;отдела" style="rounded=0;whiteSpace=wrap;html=1;" vertex="1" parent="1">
          <mxGeometry x="270" y="330" width="120" height="60" as="geometry" />
        </mxCell>
        <mxCell id="ksmCcuZ5momVZjLcUPnp-42" style="edgeStyle=orthogonalEdgeStyle;rounded=0;orthogonalLoop=1;jettySize=auto;html=1;exitX=0.5;exitY=1;exitDx=0;exitDy=0;entryX=0.5;entryY=0;entryDx=0;entryDy=0;" edge="1" parent="1" source="ksmCcuZ5momVZjLcUPnp-31" target="ksmCcuZ5momVZjLcUPnp-32">
          <mxGeometry relative="1" as="geometry" />
        </mxCell>
        <mxCell id="ksmCcuZ5momVZjLcUPnp-31" value="Отдел продаж" style="rounded=0;whiteSpace=wrap;html=1;" vertex="1" parent="1">
          <mxGeometry x="270" y="420" width="120" height="60" as="geometry" />
        </mxCell>
        <mxCell id="ksmCcuZ5momVZjLcUPnp-43" style="edgeStyle=orthogonalEdgeStyle;rounded=0;orthogonalLoop=1;jettySize=auto;html=1;" edge="1" parent="1" source="ksmCcuZ5momVZjLcUPnp-32" target="ksmCcuZ5momVZjLcUPnp-33">
          <mxGeometry relative="1" as="geometry" />
        </mxCell>
        <mxCell id="ksmCcuZ5momVZjLcUPnp-32" value="Строительная бригада 1" style="rounded=0;whiteSpace=wrap;html=1;" vertex="1" parent="1">
          <mxGeometry x="270" y="510" width="120" height="60" as="geometry" />
        </mxCell>
        <mxCell id="ksmCcuZ5momVZjLcUPnp-44" style="edgeStyle=orthogonalEdgeStyle;rounded=0;orthogonalLoop=1;jettySize=auto;html=1;exitX=0.5;exitY=1;exitDx=0;exitDy=0;entryX=0.5;entryY=0;entryDx=0;entryDy=0;" edge="1" parent="1" source="ksmCcuZ5momVZjLcUPnp-33" target="ksmCcuZ5momVZjLcUPnp-34">
          <mxGeometry relative="1" as="geometry" />
        </mxCell>
        <mxCell id="ksmCcuZ5momVZjLcUPnp-33" value="Строительная бригада 2" style="rounded=0;whiteSpace=wrap;html=1;" vertex="1" parent="1">
          <mxGeometry x="270" y="600" width="120" height="60" as="geometry" />
        </mxCell>
        <mxCell id="ksmCcuZ5momVZjLcUPnp-34" value="Строительная бригада 3" style="rounded=0;whiteSpace=wrap;html=1;" vertex="1" parent="1">
          <mxGeometry x="270" y="690" width="120" height="60" as="geometry" />
        </mxCell>
      </root>
    </mxGraphModel>
  </diagram>
</mxfile>
